<svg width="24" height="24" viewBox="0 0 24 24" fill="none" xmlns="http://www.w3.org/2000/svg">
<path fill-rule="evenodd" clip-rule="evenodd" d="M19.7583 16.256C19.4368 16.5806 18.9156 16.5828 18.594 16.2538L11.4174 8.92773C11.0959 8.5998 11.097 8.06998 11.4196 7.74428C11.5798 7.58254 11.7905 7.5 12.0001 7.5C12.2119 7.5 12.4226 7.58254 12.5828 7.74651L19.7594 15.0725C20.0809 15.4005 20.0798 15.9303 19.7583 16.256ZM5.40707 16.2537C5.08555 16.5827 4.56431 16.5805 4.24279 16.2559C3.92017 15.9302 3.91907 15.4004 4.2395 15.0724L9.00525 10.207C9.16546 10.043 9.37725 9.96049 9.58794 9.96049C9.79753 9.96049 10.0082 10.043 10.1684 10.2048C10.491 10.5305 10.4921 11.0603 10.1717 11.3882L5.40707 16.2537Z" fill="black"/>
</svg>
