<svg width="24" height="24" viewBox="0 0 24 24" fill="none" xmlns="http://www.w3.org/2000/svg">
<path d="M10.4001 1.6001C5.5401 1.6001 1.6001 5.5401 1.6001 10.4001C1.6001 15.2601 5.5401 19.2001 10.4001 19.2001C15.2601 19.2001 19.2001 15.2601 19.2001 10.4001C19.2001 5.5401 15.2601 1.6001 10.4001 1.6001ZM10.4001 16.0001C7.3073 16.0001 4.8001 13.4929 4.8001 10.4001C4.8001 7.3073 7.3073 4.8001 10.4001 4.8001C13.4929 4.8001 16.0001 7.3073 16.0001 10.4001C16.0001 13.4929 13.4929 16.0001 10.4001 16.0001Z" fill="#757677"/>
<path d="M22.3314 20.069L18.797 16.5342C18.1634 17.3998 17.3998 18.1634 16.5342 18.797L20.0686 22.3314C20.3582 22.6214 20.7582 22.8002 21.1998 22.8002C22.0834 22.8002 22.7998 22.0838 22.7998 21.2002C22.7998 20.7586 22.6206 20.3586 22.3314 20.069Z" fill="#757677"/>
</svg>
